<?xml version="1.0" encoding="UTF-8" standalone="no"?>
<!-- Created with Inkscape (http://www.inkscape.org/) -->

<svg
   xmlns:dc="http://purl.org/dc/elements/1.1/"
   xmlns:cc="http://creativecommons.org/ns#"
   xmlns:rdf="http://www.w3.org/1999/02/22-rdf-syntax-ns#"
   xmlns:svg="http://www.w3.org/2000/svg"
   xmlns="http://www.w3.org/2000/svg"
   xmlns:sodipodi="http://sodipodi.sourceforge.net/DTD/sodipodi-0.dtd"
   xmlns:inkscape="http://www.inkscape.org/namespaces/inkscape"
   width="2125.9841"
   height="1062.9921"
   id="svg2"
   version="1.1"
   inkscape:version="0.48.4 r9939"
   sodipodi:docname="rc.svg">
  <defs
     id="defs4" />
  <sodipodi:namedview
     id="base"
     pagecolor="#ffffff"
     bordercolor="#666666"
     borderopacity="1.0"
     inkscape:pageopacity="0.0"
     inkscape:pageshadow="2"
     inkscape:zoom="0.9899495"
     inkscape:cx="887.64933"
     inkscape:cy="575.52993"
     inkscape:document-units="px"
     inkscape:current-layer="layer1"
     showgrid="false"
     inkscape:window-width="1680"
     inkscape:window-height="1028"
     inkscape:window-x="0"
     inkscape:window-y="0"
     inkscape:window-maximized="1"
     units="mm" />
  <metadata
     id="metadata7">
    <rdf:RDF>
      <cc:Work
         rdf:about="">
        <dc:format>image/svg+xml</dc:format>
        <dc:type
           rdf:resource="http://purl.org/dc/dcmitype/StillImage" />
        <dc:title />
      </cc:Work>
    </rdf:RDF>
  </metadata>
  <g
     inkscape:label="Layer 1"
     inkscape:groupmode="layer"
     id="layer1"
     transform="translate(0,10.62995)">
    <path
       style="fill:#000000;fill-opacity:1;stroke:none"
       d="m 602.79709,456.67394 0,569.77806 708.66141,0 0,-569.77806 -216.1417,-138.88338 -283.46459,0 z"
       id="path3035"
       inkscape:connector-curvature="0"
       sodipodi:nodetypes="ccccccc" />
    <path
       sodipodi:type="arc"
       style="fill:#bd0000;fill-opacity:1;stroke:none"
       id="path2985"
       sodipodi:cx="154.28572"
       sodipodi:cy="296.64789"
       sodipodi:rx="60"
       sodipodi:ry="52.857143"
       d="m 214.28572,296.64789 c 0,29.19219 -26.86291,52.85714 -60,52.85714 -33.13708,0 -59.999999,-23.66495 -59.999999,-52.85714 0,-29.1922 26.862919,-52.85715 59.999999,-52.85715 33.13709,0 60,23.66495 60,52.85715 z"
       transform="matrix(1.4468504,0,0,1.6423707,533.88916,119.34122)" />
    <flowRoot
       xml:space="preserve"
       id="flowRoot3025"
       style="font-size:40px;font-style:normal;font-variant:normal;font-weight:bold;font-stretch:normal;line-height:125%;letter-spacing:0px;word-spacing:0px;fill:#000000;fill-opacity:1;stroke:none;font-family:Impact;-inkscape-font-specification:Impact Bold"><flowRegion
         id="flowRegion3027"><rect
           id="rect3029"
           width="214.15234"
           height="112.12693"
           x="179.80716"
           y="352.32648" /></flowRegion><flowPara
         id="flowPara3031" /></flowRoot>    <rect
       style="fill:#bd0000;fill-opacity:1;stroke:none"
       id="rect3757"
       width="23.031496"
       height="566.92914"
       x="602.79712"
       y="459.1586" />
    <rect
       style="fill:#bd0000;fill-opacity:1;stroke:none"
       id="rect3757-6"
       width="21.152061"
       height="662.59845"
       x="-760.57117"
       y="625.82861"
       transform="matrix(0,-1,1,0,0,0)" />
    <rect
       style="fill:#bd0000;fill-opacity:1;stroke:none"
       id="rect3757-8-9"
       width="141.73228"
       height="565.1947"
       x="205.56078"
       y="458.5351" />
    <rect
       style="fill:#bd0000;fill-opacity:1;stroke:none"
       id="rect3757-6-4"
       width="141.73228"
       height="662.59845"
       x="-545.77454"
       y="-1028.1815"
       transform="scale(-1,-1)" />
    <rect
       style="fill:#000000;fill-opacity:1;stroke:none"
       id="rect3852"
       width="48.57143"
       height="207.14285"
       x="450.62268"
       y="593.31085" />
    <g
       id="g3050"
       transform="translate(-5.3908923e-6,0)">
      <path
         transform="matrix(0.24114173,0,0,0.25532653,852.8463,398.14566)"
         d="m 627.14287,-214.15079 c 0,13.41263 -11.51267,24.28572 -25.71428,24.28572 -14.20161,0 -25.71429,-10.87309 -25.71429,-24.28572 0,-13.41263 11.51268,-24.28571 25.71429,-24.28571 14.20161,0 25.71428,10.87308 25.71428,24.28571 z"
         sodipodi:ry="24.285715"
         sodipodi:rx="25.714285"
         sodipodi:cy="-214.15079"
         sodipodi:cx="601.42859"
         id="path3837"
         style="fill:#bd0000;fill-opacity:1;stroke:none"
         sodipodi:type="arc" />
      <path
         transform="matrix(0.24114173,0,0,0.25532653,852.8463,497.35826)"
         d="m 627.14287,-214.15079 c 0,13.41263 -11.51267,24.28572 -25.71428,24.28572 -14.20161,0 -25.71429,-10.87309 -25.71429,-24.28572 0,-13.41263 11.51268,-24.28571 25.71429,-24.28571 14.20161,0 25.71428,10.87308 25.71428,24.28571 z"
         sodipodi:ry="24.285715"
         sodipodi:rx="25.714285"
         sodipodi:cy="-214.15079"
         sodipodi:cx="601.42859"
         id="path3837-6"
         style="fill:#bd0000;fill-opacity:1;stroke:none"
         sodipodi:type="arc" />
      <path
         transform="matrix(0.24114173,0,0,0.25532653,771.35024,497.35826)"
         d="m 627.14287,-214.15079 c 0,13.41263 -11.51267,24.28572 -25.71428,24.28572 -14.20161,0 -25.71429,-10.87309 -25.71429,-24.28572 0,-13.41263 11.51268,-24.28571 25.71429,-24.28571 14.20161,0 25.71428,10.87308 25.71428,24.28571 z"
         sodipodi:ry="24.285715"
         sodipodi:rx="25.714285"
         sodipodi:cy="-214.15079"
         sodipodi:cx="601.42859"
         id="path3837-9"
         style="fill:#bd0000;fill-opacity:1;stroke:none"
         sodipodi:type="arc" />
      <path
         transform="matrix(0.24114173,0,0,0.25532653,771.35024,398.14566)"
         d="m 627.14287,-214.15079 c 0,13.41263 -11.51267,24.28572 -25.71428,24.28572 -14.20161,0 -25.71429,-10.87309 -25.71429,-24.28572 0,-13.41263 11.51268,-24.28571 25.71429,-24.28571 14.20161,0 25.71428,10.87308 25.71428,24.28571 z"
         sodipodi:ry="24.285715"
         sodipodi:rx="25.714285"
         sodipodi:cy="-214.15079"
         sodipodi:cx="601.42859"
         id="path3837-0"
         style="fill:#bd0000;fill-opacity:1;stroke:none"
         sodipodi:type="arc" />
    </g>
    <g
       id="g3056">
      <path
         transform="matrix(0.24114173,0,0,0.25532653,744.7748,612.4815)"
         d="m 627.14287,-214.15079 c 0,13.41263 -11.51267,24.28572 -25.71428,24.28572 -14.20161,0 -25.71429,-10.87309 -25.71429,-24.28572 0,-13.41263 11.51268,-24.28571 25.71429,-24.28571 14.20161,0 25.71428,10.87308 25.71428,24.28571 z"
         sodipodi:ry="24.285715"
         sodipodi:rx="25.714285"
         sodipodi:cy="-214.15079"
         sodipodi:cx="601.42859"
         id="path3837-09"
         style="fill:#bd0000;fill-opacity:1;stroke:none"
         sodipodi:type="arc" />
      <path
         transform="matrix(0.24114173,0,0,0.25532653,879.42173,612.4815)"
         d="m 627.14287,-214.15079 c 0,13.41263 -11.51267,24.28572 -25.71428,24.28572 -14.20161,0 -25.71429,-10.87309 -25.71429,-24.28572 0,-13.41263 11.51268,-24.28571 25.71429,-24.28571 14.20161,0 25.71428,10.87308 25.71428,24.28571 z"
         sodipodi:ry="24.285715"
         sodipodi:rx="25.714285"
         sodipodi:cy="-214.15079"
         sodipodi:cx="601.42859"
         id="path3837-3"
         style="fill:#bd0000;fill-opacity:1;stroke:none"
         sodipodi:type="arc" />
      <path
         transform="matrix(0.24114173,0,0,0.25532653,879.42173,743.58964)"
         d="m 627.14287,-214.15079 c 0,13.41263 -11.51267,24.28572 -25.71428,24.28572 -14.20161,0 -25.71429,-10.87309 -25.71429,-24.28572 0,-13.41263 11.51268,-24.28571 25.71429,-24.28571 14.20161,0 25.71428,10.87308 25.71428,24.28571 z"
         sodipodi:ry="24.285715"
         sodipodi:rx="25.714285"
         sodipodi:cy="-214.15079"
         sodipodi:cx="601.42859"
         id="path3837-2"
         style="fill:#bd0000;fill-opacity:1;stroke:none"
         sodipodi:type="arc" />
      <path
         transform="matrix(0.24114173,0,0,0.25532653,744.7748,743.58964)"
         d="m 627.14287,-214.15079 c 0,13.41263 -11.51267,24.28572 -25.71428,24.28572 -14.20161,0 -25.71429,-10.87309 -25.71429,-24.28572 0,-13.41263 11.51268,-24.28571 25.71429,-24.28571 14.20161,0 25.71428,10.87308 25.71428,24.28571 z"
         sodipodi:ry="24.285715"
         sodipodi:rx="25.714285"
         sodipodi:cy="-214.15079"
         sodipodi:cx="601.42859"
         id="path3837-8"
         style="fill:#bd0000;fill-opacity:1;stroke:none"
         sodipodi:type="arc" />
    </g>
    <g
       id="g3062">
      <path
         transform="matrix(0.24114173,0,0,0.25532653,742.25544,588.8601)"
         d="m 627.14287,-214.15079 a 25.714285,24.285715 0 1 1 -51.42857,0 25.714285,24.285715 0 1 1 51.42857,0 z"
         sodipodi:ry="24.285715"
         sodipodi:rx="25.714285"
         sodipodi:cy="-214.15079"
         sodipodi:cx="601.42859"
         id="path3837-1"
         style="fill:#bd0000;fill-opacity:1;stroke:none"
         sodipodi:type="arc" />
      <path
         transform="matrix(0.24114173,0,0,0.25532653,724.18334,408.85432)"
         d="m 627.14287,-214.15079 a 25.714285,24.285715 0 1 1 -51.42857,0 25.714285,24.285715 0 1 1 51.42857,0 z"
         sodipodi:ry="24.285715"
         sodipodi:rx="25.714285"
         sodipodi:cy="-214.15079"
         sodipodi:cx="601.42859"
         id="path3837-4"
         style="fill:#bd0000;fill-opacity:1;stroke:none"
         sodipodi:type="arc" />
      <path
         transform="matrix(0.24114173,0,0,0.25532653,841.11364,588.8601)"
         d="m 627.14287,-214.15079 a 25.714285,24.285715 0 1 1 -51.42857,0 25.714285,24.285715 0 1 1 51.42857,0 z"
         sodipodi:ry="24.285715"
         sodipodi:rx="25.714285"
         sodipodi:cy="-214.15079"
         sodipodi:cx="601.42859"
         id="path3837-5"
         style="fill:#bd0000;fill-opacity:1;stroke:none"
         sodipodi:type="arc" />
    </g>
    <rect
       style="fill:#bd0000;fill-opacity:1;stroke:none"
       id="rect3757-3"
       width="23.031496"
       height="566.92914"
       x="1288.4269"
       y="459.1586" />
    <path
       sodipodi:type="arc"
       style="fill:#bd0000;fill-opacity:1;stroke:none"
       id="path2985-7"
       sodipodi:cx="154.28572"
       sodipodi:cy="296.64789"
       sodipodi:rx="60"
       sodipodi:ry="52.857143"
       d="m 214.28572,296.64789 c 0,29.19219 -26.86291,52.85714 -60,52.85714 -33.13708,0 -59.999999,-23.66495 -59.999999,-52.85714 0,-29.1922 26.862919,-52.85715 59.999999,-52.85715 33.13709,0 60,23.66495 60,52.85715 z"
       transform="matrix(1.4468504,0,0,1.6423707,933.9096,119.34122)" />
    <rect
       style="fill:#bd0000;fill-opacity:1;stroke:none"
       id="rect3757-8-9-9"
       width="141.73228"
       height="565.1947"
       x="13.986669"
       y="458.63779" />
    <path
       style="fill:#000000;fill-opacity:1;stroke:none"
       d="m 1364.9489,453.05681 0,569.77809 708.6614,0 0,-569.77809 -216.1417,-138.88338 -283.4646,0 z"
       id="path3035-1"
       inkscape:connector-curvature="0"
       sodipodi:nodetypes="ccccccc" />
    <rect
       style="fill:#bd0000;fill-opacity:1;stroke:none"
       id="rect3757-2"
       width="23.031496"
       height="566.92914"
       x="1364.949"
       y="455.54147" />
    <rect
       style="fill:#bd0000;fill-opacity:1;stroke:none"
       id="rect3757-6-1"
       width="21.152061"
       height="662.59845"
       x="-756.95398"
       y="1387.9805"
       transform="matrix(0,-1,1,0,0,0)" />
    <rect
       style="fill:#bd0000;fill-opacity:1;stroke:none"
       id="rect3757-3-7"
       width="23.031496"
       height="566.92914"
       x="2050.5786"
       y="455.54147" />
    <rect
       style="fill:#bd0000;fill-opacity:1;stroke:none"
       id="rect3757-8-9-9-2"
       width="70.866142"
       height="35.433071"
       x="921.6947"
       y="479.28253" />
    <g
       id="g4219"
       transform="translate(24.298568,238.396)">
      <path
         transform="matrix(0.49565254,0,0,0.45600036,421.6989,170.79326)"
         d="m 711.14739,-47.165581 c 0,13.947296 -10.402,25.253813 -23.23351,25.253813 -12.83151,0 -23.23351,-11.306517 -23.23351,-25.253813 0,-13.947295 10.402,-25.253813 23.23351,-25.253813 12.83151,0 23.23351,11.306518 23.23351,25.253813 z"
         sodipodi:ry="25.253813"
         sodipodi:rx="23.233509"
         sodipodi:cy="-47.165581"
         sodipodi:cx="687.91388"
         id="path4163"
         style="fill:#d20000;fill-opacity:1;stroke:none"
         sodipodi:type="arc" />
      <path
         transform="matrix(0.49565254,0,0,0.45600036,762.02704,170.79326)"
         d="m 711.14739,-47.165581 c 0,13.947296 -10.402,25.253813 -23.23351,25.253813 -12.83151,0 -23.23351,-11.306517 -23.23351,-25.253813 0,-13.947295 10.402,-25.253813 23.23351,-25.253813 12.83151,0 23.23351,11.306518 23.23351,25.253813 z"
         sodipodi:ry="25.253813"
         sodipodi:rx="23.233509"
         sodipodi:cy="-47.165581"
         sodipodi:cx="687.91388"
         id="path4163-3"
         style="fill:#d20000;fill-opacity:1;stroke:none"
         sodipodi:type="arc" />
      <path
         transform="matrix(0.49565254,0,0,0.45600036,850.60971,227.3618)"
         d="m 711.14739,-47.165581 c 0,13.947296 -10.402,25.253813 -23.23351,25.253813 -12.83151,0 -23.23351,-11.306517 -23.23351,-25.253813 0,-13.947295 10.402,-25.253813 23.23351,-25.253813 12.83151,0 23.23351,11.306518 23.23351,25.253813 z"
         sodipodi:ry="25.253813"
         sodipodi:rx="23.233509"
         sodipodi:cy="-47.165581"
         sodipodi:cx="687.91388"
         id="path4163-30"
         style="fill:#d20000;fill-opacity:1;stroke:none"
         sodipodi:type="arc" />
      <path
         transform="matrix(0.49565254,0,0,0.45600036,333.11622,227.3618)"
         d="m 711.14739,-47.165581 c 0,13.947296 -10.402,25.253813 -23.23351,25.253813 -12.83151,0 -23.23351,-11.306517 -23.23351,-25.253813 0,-13.947295 10.402,-25.253813 23.23351,-25.253813 12.83151,0 23.23351,11.306518 23.23351,25.253813 z"
         sodipodi:ry="25.253813"
         sodipodi:rx="23.233509"
         sodipodi:cy="-47.165581"
         sodipodi:cx="687.91388"
         id="path4163-8"
         style="fill:#d20000;fill-opacity:1;stroke:none"
         sodipodi:type="arc" />
    </g>
  </g>
</svg>
